<svg xmlns="http://www.w3.org/2000/svg" width="60.715" height="34.494" viewBox="0 0 126.907 72.101"><g fill="#666"><path d="M10.799 18.378c.614-.047 1.226-.117 1.842-.142 4.922-.2 9.89-.185 14.797.296 1.421.14 2.866.218 4.242.598.911.251 1.69.849 2.534 1.274-.086 1.029.22 2.171-.258 3.086-1.515 2.901-6.959 7.211-9.113 8.945-6.134 4.937-12.627 9.418-19.064 13.943l-3.745 2.64c-.233.285-1.027 1.019-.699.854.57-.285.886-.956 1.459-1.234 1.588-.77 3.312-1.222 4.951-1.876 4.088-1.63 10.844-4.515 14.814-6.195 5.688-2.296 8.99-3.759 14.74-5.603 1.782-.57 3.578-1.118 5.41-1.502.86-.18 4.812-1.074 5.745.614.433.783-.084 1.789-.127 2.683-.823 1.37-1.54 2.812-2.47 4.113-2.891 4.038-6.867 8.33-10.204 11.925-5.247 5.65-10.688 11.11-16.137 16.566l-2.85 2.731c-.07.093-1.385-.891-1.316-.984l2.584-2.929c1.393-1.52 2.77-3.053 4.18-4.558 4.587-4.9 6.95-7.246 11.674-12.18 2.985-3.117 7.676-7.99 10.538-11.4.942-1.122 1.763-2.338 2.644-3.507.227-.474.71-.898.68-1.422-.02-.324-.468-.565-.793-.565-1.1 0-2.19.282-3.253.565-1.759.469-3.478 1.08-5.194 1.685-5.529 1.95-9.067 3.458-14.584 5.688-5.816 2.388-9.245 3.915-15.15 5.892-1.294.433-6.438 2.739-8.5.976-1.542-1.318 7.639-5.725 4.146-4.456 1.836-1.37 3.661-2.755 5.507-4.113 2.638-1.94 10.87-7.855 13.45-9.794 2.478-1.863 7.007-5.218 9.28-7.77.404-.453.552-1.08.827-1.62-3.373-1.304-1.877-.955-6.493-1.329-1.706-.138-3.417-.223-5.127-.314-.255-.013-7.739-.352-8.757-.386-.834-.027-1.67-.033-2.505-.05-.08-.02.214-1.166.295-1.145z"/><path d="M18.05 19.333c1.131 8.995 2.293 17.988 3.32 26.996.067.683.146 1.364.203 2.048.054.643.179 1.273-1.13.607-.216-.11-.15-.462-.224-.693-.018-.082 1.136-.33 1.153-.249.126.631.553 1.437-.925 1.142-.899-.18 1.127-3.826-.667-2.666-1.524-8.955-2.646-18.003-2.938-27.088-.007-.086 1.2-.182 1.207-.097zM59.565 24.818a173.226 173.226 0 0 1-3.93 4.063c-1.021 1.026-1.536 1.445-2.4 2.56-.26.334-.474.702-.712 1.053-.187.436-1.074 1.735-.729 2.285.055.088.205.058.308.044.16-.02 1.756-.43 1.813-.445 1.352-.451 2.89-.817 3.89-1.913.439-.48.498-.668.797-1.223.468-1.683-.08-3.298-.589-4.894-.143-.394-.882-2.641.836-.667.193.221.048.584.072.877.03.373.057.746.086 1.119.21 1.115.021 2.487.717 3.47.27.384.522.444.923.642.179.037.354.1.536.11.615.035.675-.033 1.202-.163.33-.081.665-.137.988-.237.724-.223 1.206-.476 1.886-.793.664-.334 1.289-.698 1.745-1.297.088-.116.425-.56.373-.771l.05.281c-.053-.056.742-.8.795-.743l.258.45c-.003.133.017.269-.008.4-.248 1.27-1.462 2.077-2.495 2.667-1.025.51-1.997.95-3.135 1.15-.827.145-1.385.245-2.195.092-.259-.049-.5-.164-.75-.246-.633-.41-.852-.458-1.274-1.116-.72-1.124-.676-2.565-.847-3.831-.018-.375-.038-.75-.054-1.126-.013-.304-.198-.658-.032-.913 1.155-1.778 1.185-.384 1.458.334.658 1.935 1.199 3.628.54 5.676-.132.254-.244.52-.396.761-1.14 1.813-2.908 2.477-4.875 3.08-.938.135-2.225.51-3.186.031-1.411-.702-.263-2.798.172-3.678.247-.397.466-.812.74-1.191.76-1.05 1.48-1.755 2.395-2.682 1.342-1.361 2.705-2.706 4.143-3.967.053-.062.937.688.884.75z"/><path d="M67.01 21.257c1.529 1.218 2.9 2.623 4.422 3.85 1.032.831 1.63 1.207 2.698 1.928.397.215 1.217.74 1.756.784.058.005.012-.116.028-.171.026-.095.075-.183.096-.279.218-.99.142-.96.15-2.164.008-1.746-.316-3.444-.794-5.115-.247-.862-.615-2.005-1.026-2.833-.121-.244-.293-.46-.44-.69-.094-.043-.246-.224-.283-.127-.046.12.251.206.207.327-.114.306-.428.494-.612.763-.272.398-.514.817-.754 1.235-.748 1.306-.955 1.785-1.618 3.14-.636 1.456-1.139 2.963-1.414 4.53-.131.75-.23 1.513-.113 2.269.01-.025.051-.063.028-.075-.853-.46-.585.145-.523-.658l-.004.004c-.01-.076 1.065-.218 1.075-.142l.027.21c-.065.844-.355 1.725-1.465 1.232-.141-.062-.173-.256-.26-.384-.042-.185-.107-.367-.126-.556-.067-.669.005-1.464.1-2.113.248-1.668.76-3.271 1.438-4.814.705-1.44.873-1.867 1.706-3.235.28-.458.558-.92.886-1.344.63-.816 1.031-1.325 2.176-1.25.24.016.393.278.59.417.191.277.413.535.575.831.473.866.89 2.065 1.153 2.99.502 1.772.779 3.585.754 5.43-.053.81-.03 2.896-.969 3.417-1.119.621-2.274-.195-3.22-.674-1.296-.84-1.581-.977-2.832-2.008-1.5-1.236-2.854-2.638-4.26-3.975-.052-.06.795-.81.848-.75zM81.9 17.07c2.687-1.207 5.534-2.156 8.024-3.765.356-.23.676-.513 1.014-.769.165-.239.376-.452.494-.717.185-.415.16-.672-.258-.845-1.008-.417-2.314.337-3.181.66a18.058 18.058 0 0 0-5.338 3.913c-.788.835-1.562 1.751-1.94 2.862-.169.496-.183 1.032-.275 1.547.068.907-.1 1.717.708 2.36.68.542 1.545.417 2.305.243 1.979-.454 2.47-.79 4.367-1.634 1.857-.96 3.813-1.876 5.372-3.3.049-.067.998.619.95.686-.165.205-.305.435-.496.616-1.443 1.37-3.261 2.287-5.009 3.188-1.491.658-3.184 1.546-4.847 1.734-1.37.154-2.773.057-3.786-.99-.964-.995-.784-1.845-.87-3.107.12-.617.161-1.254.362-1.85.841-2.497 3.565-4.951 5.72-6.31.667-.42 1.39-.745 2.084-1.117 1.585-.54 2.192-1 3.888-.635.388.084.759.307 1.033.594.963 1.012.275 2.074-.359 2.968-.364.305-.703.64-1.09.913-2.47 1.74-5.394 2.716-8.204 3.735-.07.048-.737-.933-.668-.98zM95.568 11.62c1.176 2.128 1.668 4.524 2.366 6.828-.094-.438-.84-.249-.956-.608-.155-.475.137-.99.205-1.486.273-1.96.302-2.392.745-4.436.175-.806.39-1.602.584-2.403.796-2.709 1.754-5.41 3.284-7.799.47-.396.778-.869 1.462.195.227.353.082.836.094 1.255.016.58-.016 1.16-.013 1.74.003.516.07 4.22.077 4.665.113 2.38-.048 5.066 1.457 7.094.239.322.522.623.857.843.297.194.666.248 1 .371.413-.017.835.032 1.24-.052.406-.084.785-.273 1.161-.447 1.45-.67 2.868-1.52 3.927-2.74.204-.234.343-.518.515-.777.039-.077 1.131.473 1.092.55-.197.337-.352.703-.593 1.01-1.458 1.866-4.095 3.399-6.451 3.632-.532.053-1.065-.094-1.598-.14-.433-.213-.91-.352-1.298-.638a4.85 4.85 0 0 1-1.034-1.077c-1.593-2.203-1.584-5.024-1.698-7.613-.017-1.992-.046-2.75.027-4.718.021-.563.066-1.126.101-1.69.02-.317-.144-.712.065-.953.148-.171 1.239-.233.678.026-1.39 2.342-2.305 4.908-2.953 7.547-.442 1.816-.727 2.906-1.095 4.74-.134.665-.231 1.336-.36 2.002-.24 1.243-.145 1.79-1.344 2.536-.11.069-.18-.188-.27-.282-.989-2.164-1.31-4.584-2.319-6.746-.03-.074 1.015-.502 1.045-.428z"/><path d="M114.913 1.164c-1.084.716-2.284 1.254-3.334 2.022-.278.23-.476.532-.68.826-.427.512-.917.961-1.255 1.542-.2.278-.163.559-.197.875-.127.416-.436.758-.68 1.114-.176.215-.138.459-.2.716-.036.264-.272.34-.408.522-.034.045.003.115-.008.171-.02.105-.045.21-.067.314a4.875 4.875 0 0 0-.171 1.54c.012.191.035.381.053.572.004.044.053.148.01.133-.041-.016.001-.092-.013-.134-.025-.076-.068-.145-.101-.217-.053-.012-.195.004-.157-.034.029-.029 1.169-.192 1.312-.211.105-.02.543-.217.554-.274.625-.505 1.163-1.08 1.695-1.68.436-.523.882-1.044 1.363-1.526.028-.028.064-.05.085-.083.107-.165.18-.412.264-.594l.19-.404.2-.435c.406-.866.912-1.682 1.218-2.592.063-.241.065-.49.067-.739a18.26 18.26 0 0 1-.037-1.392c-.007-.14.013-.373.022-.476 1.179-1.52 1.084.631 1.086.842.02.515.243.982.268 1.501 0 .519.013 1.037.01 1.556-.009.504-.006 1.008-.012 1.513a7.335 7.335 0 0 0 .123 1.716c.097.559.256 1.123.206 1.695.002-.044-.02-.095.006-.13.015-.022.023.046.039.067.023.031.052.059.078.09.096.116.188.235.29.347-.047 0 .316.044.25.036-.373-.047-.41-.02-.21-.08.469-.201.9-.486 1.344-.74.554-.261 1.12-.5 1.7-.697.065-.042.654.882.588.924-.52.236-1.05.454-1.589.647-.495.263-.971.563-1.473.804-.534.211-1.097.161-1.5-.264-.286-.317-.562-.656-.6-1.098-.044-.476-.162-.948-.238-1.421a8.213 8.213 0 0 1-.114-1.895c-.006-.506-.002-1.012-.005-1.518.001-.512.022-1.024.003-1.536.036-.503-.37-.997-.266-1.52 0-.07-.072-2.849 1.093-.818-.015.203.003.107.003.448.013.462.01.925.021 1.387.01.342-.027.68-.073 1.018-.26.973-.77 1.85-1.233 2.737-.29.605-.573 1.236-.947 1.79-.205.184-.02.008-.283.326-.326.397-.722.731-1 1.168-.553.62-1.103 1.228-1.776 1.72-.314.273-.614.435-1.004.601-.654.114-1.309.277-1.976.235-.144-.09-.313-.15-.432-.271-.236-.24-.134-.754-.205-1.046a5.57 5.57 0 0 1 .179-1.798c.027-.112.306-1.35.516-1.031.105-.336.028-.72.293-1.011.148-.22.397-.623.564-.712.043-.173-.002.034.01-.31.012-.312.113-.61.263-.88.325-.637.78-1.174 1.304-1.658.267-.355.53-.713.819-1.051 1.03-.85 2.24-1.452 3.408-2.09.06-.052.807.799.747.852zM49.003 48.665c.816-.428 1.623-.876 2.448-1.286 3.554-1.765 11.062-5.288 13.94-6.624 9.359-4.345 14.707-6.802 24.451-10.882 4.387-1.837 8.82-3.566 13.229-5.35 14.642-5.451 7.786-3.058 20.527-7.29.037-.022.34.501.304.523-12.638 4.372-5.827 1.925-20.403 7.43-4.404 1.783-8.825 3.524-13.213 5.347-11.252 4.677-13.87 5.916-24.538 10.73-2.209.997-10.885 4.909-14.074 6.41-.839.395-1.662.82-2.493 1.23-.017.013-.194-.225-.178-.238zM126.334 15.652l.572.423c.014.015-.194.221-.209.206l-.565-.43c-.014-.014.188-.213.202-.199zM2.033 17.83c3.497-.091 6.978-.256 10.478-.184.067.005 1.611.103 1.816.157.21.055-.467-.034-.646.09.145-.123 1.886 1.92 1.741 2.043-.2.125-.37.316-.599.374-.998.252-2.049.035-3.057.075-3.48-.01-6.95.367-10.429.153-.191-.05.504-2.757.696-2.708z"/></g></svg>